PathFileType	4	(X/Y/Z)	9_coords_data.trc
DataRate	CameraRate	NumFrames	NumMarkers	Units	OrigDataRate	OrigDataStartFrame	OrigNumFrames
30.0	30.0	5	21	m	30.0	29	48
Frame#	Time	THUMB_TIP	THUMB_IP	THUMB_MCP	THUMB_CMC	INDEX_TIP	INDEX_DIP	INDEX_PIP	INDEX_MCP	MIDDLE_TIP	MIDDLE_DIP	MIDDLE_PIP	MIDDLE_MCP	RING_TIP	RING_DIP	RING_PIP	RING_MCP	PINKY_TIP	PINKY_DIP	PINKY_PIP	PINKY_MCP	WRIST
X1	Y1	Z1	X2	Y2	Z2	X3	Y3	Z3	X4	Y4	Z4	X5	Y5	Z5	X6	Y6	Z6	X7	Y7	Z7	X8	Y8	Z8	X9	Y9	Z9	X10	Y10	Z10	X11	Y11	Z11	X12	Y12	Z12	X13	Y13	Z13	X14	Y14	Z14	X15	Y15	Z15	X16	Y16	Z16	X17	Y17	Z17	X18	Y18	Z18	X19	Y19	Z19	X20	Y20	Z20	X21	Y21	Z21
27	0.9333333333333294	0.5345420338835245	-0.027733144208977434	-0.15089747717565805	0.5184322003918402	-0.03244967642721586	-0.135205836448681	0.4975207395337007	-0.0351916624491907	-0.11231452112094609	0.4834870532985524	-0.025538674765556046	-0.07108630894247525	0.5698993508257022	0.046615361156190915	-0.1496060895870125	0.5523898840532951	0.043158423214990305	-0.14652905312043263	0.5288109951670066	0.036923959562187636	-0.14043173445974733	0.5031050950911834	0.012105649204238511	-0.11726075549319714	0.5830553568751837	0.05850752613996457	-0.12281035606216484	0.5651579461738943	0.05644858456269197	-0.12095470260024066	0.536554873283116	0.05297839401978299	-0.11656932361995465	0.50302596774961	0.02798004240709795	-0.10085172738599457	0.5828275063899369	0.05460181043481194	-0.09243371436663728	0.5649619933269874	0.05649091426103481	-0.09093213861718841	0.540122126823767	0.05721272509846709	-0.08930733086943443	0.5057054712371793	0.0376462062727253	-0.08109965194807645	0.573209539564163	0.04812735625037967	-0.06015418202788647	0.5573603284829511	0.054004609771736045	-0.05745966924281787	0.5365297134992686	0.0558744043759305	-0.0556153898334808	0.5063172353728256	0.03617529776603434	-0.05580197823384403	0.46228308100186083	-0.023011742144276925	-0.051989820119430985
28	0.9666666666666625	0.534846333520415	-0.028061268143384943	-0.1504231476625547	0.5184543428030067	-0.0329061063579531	-0.13506638423418027	0.497458129219893	-0.035489468202949515	-0.11223427402180408	0.48351961170341656	-0.025489131820154776	-0.07105659801071973	0.5683012673203904	0.04708633452158084	-0.15140728081113441	0.5509029574420908	0.04339017491484454	-0.1479959441903661	0.52748191873808	0.036960190035108975	-0.1415059462341568	0.5025506652167057	0.011981198478175026	-0.11767070609163699	0.5814434314274853	0.06052569298257404	-0.1252857342822442	0.5637106881107079	0.05778151968239986	-0.12283230253061628	0.5353399825561898	0.05350051646574505	-0.11771511308739413	0.5026161040542791	0.02792448209658105	-0.1012481108483847	0.5822987966396314	0.05670548069687398	-0.0946773072172099	0.5644213336236171	0.05772850941062713	-0.09259170697701935	0.5396233296300226	0.05748181161135191	-0.09031615932216719	0.5055676790486558	0.03755716479041615	-0.08148768569753462	0.5736213151644214	0.04965774206048312	-0.06127603315868113	0.5575311431764496	0.05469052857596157	-0.05831336117428909	0.5366751161121093	0.055874944603068966	-0.05620734294876495	0.5066439716691856	0.03589967403959071	-0.056256131923882235	0.46228308100186094	-0.023011742144276925	-0.051989820119430985
29	0.9999999999999956	0.5351224477632658	-0.027909286983566428	-0.15009632536341633	0.5185831199318114	-0.0328794759611043	-0.13493888968282597	0.49750987868211016	-0.03552055008298005	-0.11218447844643809	0.4835481146688954	-0.02546673883517614	-0.07102770470221897	0.5671094390275587	0.046832562271243106	-0.152374213428502	0.5496816746912393	0.04331333990621111	-0.14892630040999788	0.5262302362842479	0.03708599458900763	-0.14234906391254765	0.5018280759415849	0.011968819477825354	-0.11811482823148722	0.5802987123739044	0.06080453854979173	-0.1268750219983712	0.562608187008191	0.058038928327814654	-0.12415533223938247	0.5343038267010187	0.053782061231876566	-0.1186642649360895	0.5020296461469569	0.027990528446225516	-0.10165479618687501	0.5817867346664173	0.05700434290186285	-0.09640778040427223	0.5639544933254745	0.05782872964194408	-0.0938915222177672	0.5392004475782797	0.05748246696854975	-0.09119017064738699	0.5052567018829124	0.03758398116009831	-0.08188462258727247	0.5738978303180013	0.04970931389855404	-0.06251571603509964	0.5577804570454975	0.05445985544735232	-0.059250347175702545	0.5369503439610941	0.05552969456719514	-0.05684746304436883	0.506781870925926	0.03576306638335269	-0.056682854514616854	0.4622830810018609	-0.023011742144276925	-0.051989820119430985
30	1.0333333333333288	0.5356319767591087	-0.027501364435835618	-0.14969039706599818	0.5189384800930443	-0.03260242794683599	-0.1347469597065135	0.4977036711850402	-0.03536037553822302	-0.11215721389732591	0.48354093225758876	-0.02541899838733841	-0.07104181718980629	0.5662211695978403	0.04623800994051419	-0.15275707237860636	0.5486943687787866	0.0430929618879109	-0.14945254127782448	0.5251083365085498	0.037257216801704796	-0.142998628198446	0.5010177035381245	0.012044263543370626	-0.11855308698788336	0.5795559272121689	0.05989907734786337	-0.1277684784006945	0.5618010225374448	0.0576002314743157	-0.12503376312463066	0.5334406585307764	0.05389752155731553	-0.11943115277946004	0.5013496416752039	0.028116146173004952	-0.10206350350073967	0.5813287069673092	0.05614834944321623	-0.09760219962975847	0.5635455120184909	0.05725759630610605	-0.09485856175104823	0.5388116388307664	0.05736947702870976	-0.09195977254907539	0.5048564593589097	0.037665447561536225	-0.08228931010973195	0.5740350915961111	0.048791409509510775	-0.06375305455068614	0.5580118047205795	0.05365516685710037	-0.06020366838288438	0.5372302845463923	0.05503595254800786	-0.05755152413235043	0.5067578955315158	0.03574546546822266	-0.05711099382615259	0.46228308100186083	-0.023011742144276925	-0.051989820119430985
31	1.0666666666666622	0.5363032809635835	-0.026918591771768696	-0.14916984875542605	0.5194480307852853	-0.03216892207579958	-0.1344615322941326	0.49800292872996954	-0.03510301239723923	-0.11209372704143239	0.4835619276852234	-0.025377067352951532	-0.07102362256358696	0.5656812314326025	0.045558292182902305	-0.15281751284182687	0.5480562095863845	0.042781298876984675	-0.1497115648224251	0.5243297757315477	0.037345130684423355	-0.1434255291150619	0.5003393807458206	0.012101387143227282	-0.11891327800556295	0.5790857499961383	0.05871754997920886	-0.12826718418532623	0.5612561315620874	0.05698279348464841	-0.12560347879607348	0.5328190918372592	0.05390905622577469	-0.12000915480188479	0.5007972689932333	0.02820810340339852	-0.10239632405927512	0.5809914040041725	0.05492925637049617	-0.0983828898488337	0.5632531454051866	0.056501910582923864	-0.09557558854622417	0.5385403308201258	0.05717851583530209	-0.09257575861490097	0.5045161195457668	0.03772254479435966	-0.08264907376990793	0.5740702597130829	0.04732594035382376	-0.06489590568467696	0.5582462947643101	0.052653211371609165	-0.061124656978601366	0.537531235534549	0.054527160651004936	-0.05826342399162876	0.5067819324889652	0.0356911396664753	-0.05750968220479802	0.4622830810018609	-0.023011742144276925	-0.051989820119430985
